<svg width="25" height="24" viewBox="0 0 25 24" fill="none" xmlns="http://www.w3.org/2000/svg">
<g clip-path="url(#clip0_127_770)">
<path fill-rule="evenodd" clip-rule="evenodd" d="M13.5599 16.0604C13.2787 16.3413 12.8974 16.4991 12.4999 16.4991C12.1024 16.4991 11.7212 16.3413 11.4399 16.0604L5.7819 10.4044C5.50064 10.123 5.34268 9.74138 5.34277 9.34352C5.34287 8.94567 5.50101 8.56414 5.7824 8.28288C6.06379 8.00162 6.4454 7.84366 6.84325 7.84375C7.24111 7.84384 7.62264 8.00198 7.9039 8.28338L12.4999 12.8794L17.0959 8.28338C17.3787 8.01 17.7575 7.85863 18.1508 7.86186C18.5441 7.86509 18.9204 8.02267 19.1986 8.30065C19.4769 8.57863 19.6348 8.95478 19.6384 9.34807C19.642 9.74137 19.491 10.1203 19.2179 10.4034L13.5609 16.0614L13.5599 16.0604Z" fill="currentColor"/>
</g>
<defs>
<clipPath id="clip0_127_770">
<rect width="24" height="24" fill="white" transform="translate(0.5)"/>
</clipPath>
</defs>
</svg>
