<svg width="38" height="30" viewBox="0 0 38 30" fill="none" xmlns="http://www.w3.org/2000/svg">
<path d="M1.05682 12V3.27273H2.11364V7.15909H6.76705V3.27273H7.82386V12H6.76705V8.09659H2.11364V12H1.05682ZM10.2976 12H9.18963L12.3942 3.27273H13.4851L16.6896 12H15.5817L12.9737 4.65341H12.9055L10.2976 12ZM10.7067 8.59091H15.1726V9.52841H10.7067V8.59091ZM17.5866 3.27273L20.1776 10.6193H20.2798L22.8707 3.27273H23.9787L20.7741 12H19.6832L16.4787 3.27273H17.5866ZM25.3381 12V3.27273H30.6051V4.21023H26.3949V7.15909H30.3324V8.09659H26.3949V11.0625H30.6733V12H25.3381ZM1.05682 27V18.2727H2.11364V22.1591H6.76705V18.2727H7.82386V27H6.76705V23.0966H2.11364V27H1.05682ZM10.2976 27H9.18963L12.3942 18.2727H13.4851L16.6896 27H15.5817L12.9737 19.6534H12.9055L10.2976 27ZM10.7067 23.5909H15.1726V24.5284H10.7067V23.5909ZM22.8217 20.4545C22.7706 20.0227 22.5632 19.6875 22.1996 19.4489C21.8359 19.2102 21.3899 19.0909 20.8615 19.0909C20.4751 19.0909 20.1371 19.1534 19.8473 19.2784C19.5604 19.4034 19.3359 19.5753 19.174 19.794C19.0149 20.0128 18.9354 20.2614 18.9354 20.5398C18.9354 20.7727 18.9908 20.973 19.1016 21.1406C19.2152 21.3054 19.3601 21.4432 19.5362 21.554C19.7124 21.6619 19.897 21.7514 20.0902 21.8224C20.2834 21.8906 20.4609 21.946 20.6229 21.9886L21.5092 22.2273C21.7365 22.2869 21.9893 22.3693 22.2678 22.4744C22.549 22.5795 22.8175 22.723 23.0732 22.9048C23.3317 23.0838 23.5447 23.3139 23.7124 23.5952C23.88 23.8764 23.9638 24.2216 23.9638 24.6307C23.9638 25.1023 23.8402 25.5284 23.593 25.9091C23.3487 26.2898 22.9908 26.5923 22.5192 26.8168C22.0504 27.0412 21.4808 27.1534 20.8104 27.1534C20.1854 27.1534 19.6442 27.0526 19.1868 26.8509C18.7322 26.6491 18.3743 26.3679 18.1129 26.0071C17.8544 25.6463 17.7081 25.2273 17.674 24.75H18.7649C18.7933 25.0795 18.9041 25.3523 19.0973 25.5682C19.2933 25.7812 19.5405 25.9403 19.8388 26.0455C20.1399 26.1477 20.4638 26.1989 20.8104 26.1989C21.2138 26.1989 21.576 26.1335 21.897 26.0028C22.218 25.8693 22.4723 25.6847 22.6598 25.4489C22.8473 25.2102 22.9411 24.9318 22.9411 24.6136C22.9411 24.3239 22.8601 24.0881 22.6982 23.9062C22.5362 23.7244 22.3232 23.5767 22.0589 23.4631C21.7947 23.3494 21.5092 23.25 21.2024 23.1648L20.1286 22.858C19.4467 22.6619 18.907 22.3821 18.5092 22.0185C18.1115 21.6548 17.9126 21.179 17.9126 20.5909C17.9126 20.1023 18.0447 19.6761 18.3089 19.3125C18.576 18.946 18.9339 18.6619 19.3828 18.4602C19.8345 18.2557 20.3388 18.1534 20.8956 18.1534C21.4581 18.1534 21.9581 18.2543 22.3956 18.456C22.8331 18.6548 23.1797 18.9276 23.4354 19.2741C23.6939 19.6207 23.8303 20.0142 23.8445 20.4545H22.8217Z" fill="#00917D"/>
<path d="M37.5 7.41L25.5 19.41L20 13.91L21.41 12.5L25.5 16.58L36.09 6L37.5 7.41Z" fill="#98DB7B"/>
</svg>
