<svg width="24" height="24" viewBox="0 0 24 24" fill="none" xmlns="http://www.w3.org/2000/svg">
<path d="M10.2771 16.5154C10.2821 16.4054 10.4641 16.3614 10.5171 16.4574C10.7711 16.9074 11.2031 17.5684 11.6941 17.8694C12.1841 18.1694 12.9691 18.2554 13.4851 18.2774C13.5951 18.2824 13.6391 18.4634 13.5431 18.5174C13.0931 18.7714 12.4321 19.2034 12.1311 19.6934C11.8311 20.1834 11.7451 20.9694 11.7231 21.4854C11.7181 21.5954 11.5361 21.6384 11.4831 21.5424C11.2291 21.0924 10.7971 20.4324 10.3071 20.1314C9.81713 19.8304 9.03113 19.7454 8.51513 19.7234C8.40513 19.7184 8.36213 19.5364 8.45813 19.4834C8.90813 19.2294 9.56813 18.7974 9.86913 18.3064C10.1701 17.8164 10.2551 17.0304 10.2771 16.5154ZM18.4921 15.5154C18.4841 15.4054 18.2921 15.3594 18.2351 15.4534C18.0631 15.7364 17.8141 16.0764 17.5381 16.2464C17.2621 16.4164 16.8451 16.4824 16.5151 16.5084C16.4051 16.5164 16.3601 16.7084 16.4531 16.7654C16.7361 16.9374 17.0771 17.1854 17.2461 17.4624C17.4161 17.7384 17.4831 18.1554 17.5081 18.4854C17.5171 18.5954 17.7081 18.6404 17.7661 18.5464C17.9381 18.2644 18.1861 17.9234 18.4631 17.7544C18.7391 17.5844 19.1551 17.5174 19.4851 17.4924C19.5951 17.4834 19.6411 17.2924 19.5471 17.2344C19.2641 17.0624 18.9231 16.8144 18.7541 16.5374C18.5841 16.2614 18.5181 15.8454 18.4921 15.5154ZM14.7041 4.00238L14.4621 3.69638C13.5251 2.51338 13.0571 1.92138 12.5121 2.00838C11.9671 2.09638 11.7061 2.80438 11.1851 4.22138L11.0511 4.58738C10.9021 4.99038 10.8281 5.19138 10.6871 5.33938C10.5441 5.48738 10.3511 5.56438 9.96313 5.71938L9.61013 5.86038L9.36213 5.96038C8.16213 6.44038 7.55813 6.71338 7.48113 7.24338C7.39913 7.80838 7.97113 8.29238 9.11513 9.25938L9.41113 9.50938C9.73613 9.78438 9.89913 9.92238 9.99113 10.1094C10.0851 10.2964 10.0981 10.5124 10.1251 10.9444L10.1491 11.3374C10.2421 12.8574 10.2891 13.6174 10.7831 13.8794C11.2771 14.1414 11.8911 13.7324 13.1191 12.9134L13.4371 12.7014C13.7871 12.4684 13.9611 12.3514 14.1601 12.3204C14.3601 12.2884 14.5621 12.3444 14.9661 12.4564L15.3341 12.5584C16.7561 12.9524 17.4671 13.1494 17.8541 12.7464C18.2421 12.3434 18.0501 11.6064 17.6641 10.1334L17.5651 9.75238C17.4551 9.33338 17.4011 9.12438 17.4311 8.91738C17.4611 8.71038 17.5731 8.52838 17.7961 8.16538L17.9991 7.83538C18.7851 6.55938 19.1781 5.92138 18.9231 5.40938C18.6691 4.89938 17.9361 4.85238 16.4691 4.76138L16.0901 4.73738C15.6731 4.71138 15.4651 4.69838 15.2841 4.60238C15.1041 4.50638 14.9701 4.33838 14.7041 4.00238ZM8.83513 13.3264C6.69813 14.3704 4.91913 16.0244 4.24813 18.0004C3.49613 13.2934 4.54013 10.2534 6.21313 8.36338C6.35713 8.65838 6.54513 8.90238 6.71313 9.09338C7.06313 9.48938 7.56513 9.91338 8.07513 10.3444L8.44213 10.6544L8.61213 10.7994C8.61713 10.8634 8.62213 10.9394 8.62713 11.0364L8.65713 11.5214C8.69713 12.1764 8.73713 12.8154 8.83513 13.3264Z" fill="currentColor"/>
</svg>
