<svg width="24" height="24" viewBox="0 0 24 24" fill="none" xmlns="http://www.w3.org/2000/svg">
<path d="M11 20C10.6059 20.0011 10.2155 19.924 9.85139 19.7731C9.4873 19.6222 9.15678 19.4006 8.879 19.121L4.879 15.121C4.312 14.555 4 13.801 4 13C4 12.199 4.312 11.445 4.879 10.878C6.012 9.74499 7.988 9.74499 9.121 10.878L10.309 12.066L13.378 6.54299C13.6658 6.0239 14.1011 5.60187 14.6289 5.33034C15.1567 5.05881 15.7532 4.95 16.3428 5.01767C16.9325 5.08534 17.4888 5.32645 17.9413 5.71049C18.3939 6.09452 18.7223 6.6042 18.885 7.17499C18.9946 7.55381 19.0278 7.95063 18.9826 8.34239C18.9375 8.73416 18.8149 9.11303 18.622 9.45699L13.622 18.457C13.361 18.9235 12.9806 19.3123 12.5199 19.5835C12.0591 19.8546 11.5346 19.9983 11 20ZM7 12C6.732 12 6.482 12.104 6.293 12.293C6.104 12.482 6 12.732 6 13C6 13.268 6.104 13.518 6.293 13.707L10.293 17.707C10.4026 17.816 10.536 17.8982 10.6826 17.9471C10.8293 17.996 10.9853 18.0103 11.1384 17.9889C11.2915 17.9675 11.4375 17.911 11.5652 17.8237C11.6928 17.7365 11.7985 17.6209 11.874 17.486L16.874 8.48599C16.9382 8.37142 16.979 8.24526 16.9941 8.1148C17.0092 7.98435 16.9983 7.85219 16.962 7.72599C16.9261 7.59925 16.8654 7.48093 16.7833 7.37791C16.7013 7.2749 16.5995 7.18926 16.484 7.12599C16.2517 7.00198 15.9802 6.97313 15.727 7.04553C15.4738 7.11792 15.2587 7.2859 15.127 7.51399L10.77 15.355L7.708 12.293C7.61518 12.1998 7.50482 12.126 7.3833 12.0757C7.26179 12.0254 7.13151 11.9997 7 12Z" fill="currentColor"/>
</svg>
