<svg width="24" height="24" viewBox="0 0 24 24" fill="none" xmlns="http://www.w3.org/2000/svg">
<g clip-path="url(#clip0_127_766)">
<path fill-rule="evenodd" clip-rule="evenodd" d="M10.9396 7.93966C11.2209 7.65876 11.6021 7.50098 11.9996 7.50098C12.3971 7.50098 12.7784 7.65876 13.0596 7.93966L18.7176 13.5957C18.8569 13.735 18.9674 13.9004 19.0427 14.0824C19.1181 14.2644 19.1568 14.4595 19.1568 14.6565C19.1567 14.8535 19.1179 15.0486 19.0424 15.2306C18.967 15.4125 18.8565 15.5779 18.7171 15.7172C18.5778 15.8564 18.4124 15.9669 18.2304 16.0422C18.0484 16.1176 17.8533 16.1563 17.6563 16.1563C17.4593 16.1562 17.2642 16.1174 17.0822 16.042C16.9002 15.9665 16.7349 15.856 16.5956 15.7167L11.9996 11.1217L7.40364 15.7177C7.26533 15.861 7.09987 15.9753 6.9169 16.054C6.73393 16.1327 6.53712 16.1742 6.33796 16.176C6.13879 16.1779 5.94125 16.14 5.75687 16.0647C5.57249 15.9893 5.40496 15.878 5.26406 15.7373C5.12315 15.5965 5.0117 15.4291 4.93619 15.2447C4.86068 15.0604 4.82263 14.8629 4.82427 14.6638C4.82591 14.4646 4.86719 14.2678 4.94572 14.0847C5.02424 13.9017 5.13844 13.7361 5.28164 13.5977L10.9396 7.93966Z" fill="currentColor"/>
</g>
<defs>
<clipPath id="clip0_127_766">
<rect width="24" height="24" fill="white"/>
</clipPath>
</defs>
</svg>
